<?xml version="1.0" encoding="UTF-8" standalone="no"?>
<!-- Created with Inkscape (http://www.inkscape.org/) -->

<svg
   xmlns:dc="http://purl.org/dc/elements/1.1/"
   xmlns:cc="http://creativecommons.org/ns#"
   xmlns:rdf="http://www.w3.org/1999/02/22-rdf-syntax-ns#"
   xmlns:svg="http://www.w3.org/2000/svg"
   xmlns="http://www.w3.org/2000/svg"
   xmlns:sodipodi="http://sodipodi.sourceforge.net/DTD/sodipodi-0.dtd"
   xmlns:inkscape="http://www.inkscape.org/namespaces/inkscape"
   width="220"
   height="95"
   id="svg2"
   version="1.1"
   inkscape:version="0.91 r13725"
   sodipodi:docname="lisnoc_packet.svg"
   inkscape:export-filename="/home/wallento/dev/lisnoc.gh-pages/images/lisnoc_packet.png"
   inkscape:export-xdpi="150.14"
   inkscape:export-ydpi="150.14">
  <sodipodi:namedview
     id="base"
     pagecolor="#ffffff"
     bordercolor="#666666"
     borderopacity="1.0"
     inkscape:pageopacity="0.0"
     inkscape:pageshadow="2"
     inkscape:zoom="3.959798"
     inkscape:cx="98.306611"
     inkscape:cy="18.88455"
     inkscape:document-units="px"
     inkscape:current-layer="layer1"
     showgrid="true"
     inkscape:window-width="1920"
     inkscape:window-height="1031"
     inkscape:window-x="0"
     inkscape:window-y="25"
     inkscape:window-maximized="1"
     fit-margin-top="0"
     fit-margin-left="0"
     fit-margin-right="0"
     fit-margin-bottom="0">
    <inkscape:grid
       type="xygrid"
       id="grid2985"
       empspacing="5"
       visible="true"
       enabled="true"
       snapvisiblegridlinesonly="true"
       originx="-235px"
       originy="-650px" />
  </sodipodi:namedview>
  <defs
     id="defs4" />
  <metadata
     id="metadata7">
    <rdf:RDF>
      <cc:Work
         rdf:about="">
        <dc:format>image/svg+xml</dc:format>
        <dc:type
           rdf:resource="http://purl.org/dc/dcmitype/StillImage" />
        <dc:title />
      </cc:Work>
    </rdf:RDF>
  </metadata>
  <g
     inkscape:label="Layer 1"
     inkscape:groupmode="layer"
     id="layer1"
     transform="translate(-235,-307.36218)">
    <text
       xml:space="preserve"
       style="font-size:12px;font-style:normal;font-variant:normal;font-weight:normal;font-stretch:normal;text-align:center;line-height:100%;letter-spacing:0px;word-spacing:0px;text-anchor:middle;fill:#000000;fill-opacity:1;stroke:none;font-family:Architects Daughter;-inkscape-font-specification:Architects Daughter"
       x="250"
       y="319.36218"
       id="text2987"
       sodipodi:linespacing="100%"><tspan
         sodipodi:role="line"
         id="tspan2989"
         x="250"
         y="319.36218">33</tspan></text>
    <text
       xml:space="preserve"
       style="font-size:12px;font-style:normal;font-variant:normal;font-weight:normal;font-stretch:normal;text-align:center;line-height:100%;letter-spacing:0px;word-spacing:0px;text-anchor:middle;fill:#000000;fill-opacity:1;stroke:none;font-family:Architects Daughter;-inkscape-font-specification:Architects Daughter"
       x="270"
       y="319.36218"
       id="text2991"
       sodipodi:linespacing="100%"><tspan
         sodipodi:role="line"
         id="tspan2993"
         x="270"
         y="319.36218">32</tspan></text>
    <text
       xml:space="preserve"
       style="font-size:12px;font-style:normal;font-variant:normal;font-weight:normal;font-stretch:normal;text-align:center;line-height:100%;letter-spacing:0px;word-spacing:0px;text-anchor:middle;fill:#000000;fill-opacity:1;stroke:none;font-family:Architects Daughter;-inkscape-font-specification:Architects Daughter"
       x="287"
       y="319.36218"
       id="text2995"
       sodipodi:linespacing="100%"><tspan
         sodipodi:role="line"
         id="tspan2997"
         x="287"
         y="319.36218">31</tspan></text>
    <text
       xml:space="preserve"
       style="font-size:12px;font-style:normal;font-variant:normal;font-weight:normal;font-stretch:normal;text-align:center;line-height:100%;letter-spacing:0px;word-spacing:0px;text-anchor:middle;fill:#000000;fill-opacity:1;stroke:none;font-family:Architects Daughter;-inkscape-font-specification:Architects Daughter"
       x="443"
       y="319.36218"
       id="text2999"
       sodipodi:linespacing="100%"><tspan
         sodipodi:role="line"
         id="tspan3001"
         x="443"
         y="319.36218">0</tspan></text>
    <text
       xml:space="preserve"
       style="font-size:12px;font-style:normal;font-variant:normal;font-weight:normal;font-stretch:normal;text-align:center;line-height:100%;letter-spacing:0px;word-spacing:0px;text-anchor:middle;fill:#000000;fill-opacity:1;stroke:none;font-family:Architects Daughter;-inkscape-font-specification:Architects Daughter"
       x="333"
       y="319.36218"
       id="text3003"
       sodipodi:linespacing="100%"><tspan
         sodipodi:role="line"
         id="tspan3005"
         x="333"
         y="319.36218">28</tspan></text>
    <text
       xml:space="preserve"
       style="font-size:12px;font-style:normal;font-variant:normal;font-weight:normal;font-stretch:normal;text-align:center;line-height:100%;letter-spacing:0px;word-spacing:0px;text-anchor:middle;fill:#000000;fill-opacity:1;stroke:none;font-family:Architects Daughter;-inkscape-font-specification:Architects Daughter"
       x="357"
       y="319.36218"
       id="text3007"
       sodipodi:linespacing="100%"><tspan
         sodipodi:role="line"
         id="tspan3009"
         x="357"
         y="319.36218">27</tspan></text>
    <path
       style="fill:none;stroke:#000000;stroke-width:1;stroke-linecap:butt;stroke-linejoin:miter;stroke-miterlimit:4;stroke-opacity:1;stroke-dashoffset:0"
       d="m 260.06967,322.29044 c 0,0 1.16152,0.0585 2.88699,0.0585 0.8339,0 1.73465,0.10945 2.78495,0.10945 0.90734,0 1.84867,-0.19614 2.83293,-0.19614 0.9468,0 2.00736,0.0909 2.95416,0.0909 0.98456,0 1.8515,0.10901 2.75908,0.10901 1.05045,0 1.93892,-0.15534 2.77283,-0.15534 1.72466,0 2.86601,0.12328 2.86601,0.12328 0,0 -0.01,1.22414 -0.01,2.98708 0,0.89504 0.13636,1.78552 0.13636,2.85904 0,0.98811 0.0221,2.16288 0.0221,3.15104 0,1.07359 0.014,2.0835 0.014,2.9787 0,1.7638 -0.16734,3.01884 -0.16734,3.01884 0,0 -1.11919,0.0133 -2.84466,0.0133 -0.83391,0 -1.84064,-0.0641 -2.89094,-0.0641 -0.90735,0 -1.86955,0.0158 -2.85381,0.0158 -0.9468,0 -1.82466,0.0719 -2.77145,0.0719 -0.98457,0 -1.98903,-0.0121 -2.89661,-0.0121 -1.05045,0 -2.00356,-0.18318 -2.83747,-0.18318 -1.72466,0 -2.75392,0.16386 -2.75392,0.16386 0,0 -0.14739,-1.23758 -0.14739,-3.00053 0,-0.89503 -0.0164,-1.95046 -0.0164,-3.02398 0,-0.98811 0.19058,-2.05617 0.19058,-3.04433 0,-1.07359 -0.0258,-2.03606 -0.0258,-2.93127 0,-1.76379 -0.16689,-3.03048 -0.16689,-3.03048"
       id="rect3011-8"
       inkscape:connector-curvature="0"
       sodipodi:nodetypes="ccccc" />
    <path
       style="fill:none;stroke:#000000;stroke-width:1;stroke-linecap:butt;stroke-linejoin:miter;stroke-miterlimit:4;stroke-opacity:1;stroke-dashoffset:0"
       d="m 239.90366,322.33537 c 0,0 1.12865,0.0199 2.85412,0.0199 0.83391,0 1.82428,0.0643 2.87458,0.0643 0.90735,0 1.87273,-2e-5 2.85699,-2e-5 0.9468,0 1.89989,-0.0208 2.84669,-0.0208 0.98457,0 2.02768,0.0622 2.93526,0.0622 1.05045,0 2.08778,-0.0117 2.92169,-0.0117 1.72466,0 2.70973,-0.0639 2.70973,-0.0639 0,0 0.13909,1.30415 0.13909,3.06709 0,0.89504 -0.051,1.73536 -0.051,2.80887 0,0.98812 -0.038,2.2002 -0.038,3.18836 0,1.07358 0.051,2.11622 0.051,3.01142 0,1.7638 -0.0709,2.82703 -0.0709,2.82703 0,0 -1.0937,0.16982 -2.81917,0.16982 -0.8339,0 -1.77732,0.004 -2.82762,0.004 -0.90735,0 -1.96075,-0.14801 -2.945,-0.14801 -0.9468,0 -1.89512,0.11763 -2.84191,0.11763 -0.98457,0 -1.80582,-0.13833 -2.7134,-0.13833 -1.05045,0 -2.11921,-0.0285 -2.95312,-0.0285 -1.72466,0 -2.74089,0.0573 -2.74089,0.0573 0,0 -0.1623,-1.12578 -0.1623,-2.88872 0,-0.89504 0.16045,-1.95269 0.16045,-3.02621 0,-0.98812 -0.0227,-2.1305 -0.0227,-3.11866 0,-1.07359 -0.0403,-2.12665 -0.0403,-3.02186 0,-1.76379 -0.12422,-2.9272 -0.12422,-2.9272"
       id="rect3011-8-7"
       inkscape:connector-curvature="0"
       sodipodi:nodetypes="ccccc" />
    <path
       style="fill:none;stroke:#000000;stroke-width:1;stroke-linecap:butt;stroke-linejoin:miter;stroke-miterlimit:4;stroke-opacity:1;stroke-dashoffset:0"
       d="m 279.98756,322.4614 c 0,0 0.99503,-0.13211 2.87181,-0.13211 0.83465,0 1.85654,-0.0428 2.98316,-0.0428 0.90299,0 2.02453,0.002 3.08686,0.002 0.93135,0 1.77246,0.1348 2.80816,0.1348 0.94715,0 1.98062,0.0336 3.00149,0.0336 0.95699,0 1.91703,-0.0141 2.92778,-0.0141 0.96443,0 1.95213,9e-4 2.95603,9e-4 0.96985,0 2.08752,-0.14938 3.08571,-0.14938 0.97454,0 1.91045,0.16558 2.90414,0.16558 0.97886,0 1.85712,-0.14991 2.84707,-0.14991 0.98264,0 2.15171,0.0315 3.13798,0.0315 0.98587,0 1.87187,-0.0789 2.85411,-0.0789 0.98948,0 1.93991,0.19268 2.91831,0.19268 0.9937,0 2.03599,0.006 3.01055,0.006 0.99836,0 2.05629,-0.0554 3.02631,-0.0554 1.0041,0 1.81895,0.0152 2.78358,0.0152 1.0111,0 1.98017,-0.0701 2.93747,-0.0701 1.0207,0 2.09947,0.1118 3.04647,0.1118 1.03563,0 2.05246,-0.002 2.98377,-0.002 1.06232,0 1.96657,-0.1752 2.86959,-0.1752 1.12693,0 2.12067,0.15563 2.95553,0.15563 1.87695,0 3.0768,0.002 3.0768,0.002 0,0 0.0341,1.18978 0.0341,2.95272 0,0.89504 0.006,1.89678 0.006,2.9703 0,0.98812 -0.14887,2.09554 -0.14887,3.0837 0,1.07358 0.14497,2.04519 0.14497,2.9404 0,1.76379 -0.0269,3.04535 -0.0269,3.04535 0,0 -1.23932,-0.0361 -3.1161,-0.0361 -0.83465,0 -1.6756,0.0447 -2.80221,0.0447 -0.903,0 -1.9039,0.007 -2.96623,0.007 -0.93135,0 -1.87519,-0.0462 -2.91089,-0.0462 -0.94715,0 -1.92549,-0.0326 -2.94636,-0.0326 -0.95699,0 -2.07649,-0.10389 -3.08724,-0.10389 -0.96443,0 -1.95177,0.18819 -2.95567,0.18819 -0.96985,0 -1.9991,-0.15722 -2.99729,-0.15722 -0.97455,0 -1.84534,-0.0293 -2.83902,-0.0293 -0.97886,0 -2.04397,0.18377 -3.03391,0.18377 -0.98264,0 -1.88185,-0.17997 -2.86811,-0.17997 -0.98587,0 -2.06279,0.17807 -3.04504,0.17807 -0.98948,0 -1.9055,0.008 -2.88391,0.008 -0.99369,0 -2.08596,-0.15494 -3.06052,-0.15494 -0.99836,0 -1.91813,0.15694 -2.88815,0.15694 -1.00411,0 -1.92896,-0.0106 -2.89359,-0.0106 -1.0111,0 -2.10276,-0.007 -3.06006,-0.007 -1.0207,0 -1.85042,-0.0916 -2.79742,-0.0916 -1.03563,0 -2.20285,0.07 -3.13415,0.07 -1.06232,0 -2.07115,-0.0643 -2.97416,-0.0643 -1.12694,0 -1.92195,0.0233 -2.75681,0.0233 -1.87694,0 -3.07525,-0.11632 -3.07525,-0.11632 0,0 -0.061,-1.19336 -0.061,-2.9563 0,-0.89504 0.16567,-1.8138 0.16567,-2.88732 0,-0.98812 -0.0322,-1.98331 -0.0322,-2.97147 0,-1.07359 -0.0697,-2.28929 -0.0697,-3.1845 0,-1.76379 0.0532,-2.80866 0.0532,-2.80866"
       id="rect3011-8-7-9"
       inkscape:connector-curvature="0"
       sodipodi:nodetypes="ccccc" />
    <text
       xml:space="preserve"
       style="font-size:12px;font-style:normal;font-variant:normal;font-weight:normal;font-stretch:normal;text-align:center;line-height:100%;letter-spacing:0px;word-spacing:0px;text-anchor:middle;fill:#000000;fill-opacity:1;stroke:none;font-family:Architects Daughter;-inkscape-font-specification:Architects Daughter"
       x="312.97974"
       y="333.87738"
       id="text3068"
       sodipodi:linespacing="100%"><tspan
         sodipodi:role="line"
         id="tspan3070"
         x="312.97974"
         y="333.87738"
         style="font-size:10px">destination</tspan></text>
    <text
       xml:space="preserve"
       style="font-size:13px;font-style:normal;font-variant:normal;font-weight:normal;font-stretch:normal;text-align:center;line-height:100%;letter-spacing:0px;word-spacing:0px;text-anchor:middle;fill:#000000;fill-opacity:1;stroke:none;font-family:Architects Daughter;-inkscape-font-specification:Architects Daughter"
       x="270"
       y="335.36218"
       id="text2999-5"
       sodipodi:linespacing="100%"><tspan
         sodipodi:role="line"
         id="tspan3001-1"
         x="270"
         y="335.36218"
         style="font-size:13px">1</tspan></text>
    <text
       xml:space="preserve"
       style="font-size:13px;font-style:normal;font-variant:normal;font-weight:normal;font-stretch:normal;text-align:center;line-height:100%;letter-spacing:0px;word-spacing:0px;text-anchor:middle;fill:#000000;fill-opacity:1;stroke:none;font-family:Architects Daughter;-inkscape-font-specification:Architects Daughter"
       x="250"
       y="335.36218"
       id="text2999-5-5"
       sodipodi:linespacing="100%"><tspan
         sodipodi:role="line"
         id="tspan3001-1-8"
         x="250"
         y="335.36218"
         style="font-size:13px">0</tspan></text>
    <path
       style="fill:none;stroke:#000000;stroke-width:1;stroke-linecap:butt;stroke-linejoin:miter;stroke-miterlimit:4;stroke-opacity:1;stroke-dashoffset:0"
       d="m 344.97555,322.26522 c 0,0 1.19577,0.085 3.12319,0.085 0.84252,0 1.68533,-0.065 2.83665,-0.065 0.91184,0 2.00918,-0.0183 3.09437,-0.0183 0.94028,0 1.91405,0.19522 2.97188,0.19522 0.95607,0 1.87657,-0.0386 2.91957,-0.0386 0.96563,0 1.96522,-0.12088 2.99823,-0.12088 0.97254,0 2.10341,-0.0274 3.12978,-0.0274 0.97767,0 1.96763,-0.005 2.98908,-0.005 0.98177,0 1.87819,0.0168 2.89593,0.0168 0.98454,0 2.02591,-0.0215 3.04008,-0.0215 0.98775,0 2.0883,0.16303 3.10043,0.16303 0.98979,0 1.96542,0.0204 2.97504,0.0204 0.99154,0 2.01902,-0.0231 3.02642,-0.0231 0.99368,0 1.95061,0.0307 2.95657,0.0307 0.99525,0 2.04038,-0.15644 3.04462,-0.15644 0.99657,0 1.86618,-0.0229 2.86864,-0.0229 0.99864,0 1.96006,0.0455 2.96161,0.0455 0.99967,0 2.03457,0.12164 3.03424,0.12164 1.00118,0 2.11487,9.3e-4 3.11314,9.3e-4 1.00272,0 1.97161,-0.17989 2.96845,-0.17989 1.00442,0 2.06723,0.1473 3.06267,0.1473 1.00606,0 1.96823,0.0375 2.96201,0.0375 1.00745,0 1.90443,-0.17099 2.89602,-0.17099 1.00978,0 2.15303,0.13236 3.14296,0.13236 1.01208,0 1.86674,0.0315 2.85444,0.0315 1.01432,0 1.97531,-0.0639 2.96,-0.0639 1.01758,0 2.20989,0.0199 3.19152,0.0199 1.02143,0 1.85378,-0.10238 2.83143,-0.10238 1.02643,0 2.18924,0.0154 3.16184,0.0154 1.03341,0 2.04765,0.0621 3.01362,0.0621 1.04259,0 1.94048,-0.11176 2.8962,-0.11176 1.05781,0 2.15006,0.0491 3.09032,0.0491 1.08501,0 1.96334,0.14311 2.87506,0.14311 1.15159,0 2.21622,-0.19031 3.05891,-0.19031 1.9275,0 3.04338,0.17493 3.04338,0.17493 0,0 -0.0732,1.05996 -0.0732,2.8229 0,0.89503 0.10934,2.02672 0.10934,3.10024 0,0.98812 -0.076,2.10817 -0.076,3.09633 0,1.07359 0.0351,1.92664 0.0351,2.82184 0,1.7638 -0.0584,2.98173 -0.0584,2.98173 0,0 -1.10051,0.19604 -3.02793,0.19604 -0.84252,0 -1.83234,0.003 -2.98366,0.003 -0.91184,0 -1.80702,-0.0717 -2.89222,-0.0717 -0.94027,0 -2.11118,-0.0961 -3.169,-0.0961 -0.95607,0 -1.96713,0.0116 -3.01013,0.0116 -0.96563,0 -1.81161,0.12545 -2.84463,0.12545 -0.97254,0 -1.96412,-0.0115 -2.99049,-0.0115 -0.97767,0 -2.02027,0.0345 -3.04173,0.0345 -0.98177,0 -2.00742,0.007 -3.02516,0.007 -0.98454,0 -2.05383,-0.18336 -3.068,-0.18336 -0.98776,0 -1.89042,0.17396 -2.90255,0.17396 -0.98978,0 -2.00163,-0.18358 -3.01126,-0.18358 -0.99154,0 -2.05004,0.19111 -3.05744,0.19111 -0.99368,0 -1.89399,-0.0315 -2.89995,-0.0315 -0.99525,0 -1.97322,-0.0846 -2.97746,-0.0846 -0.99657,0 -2.19132,0.046 -3.19378,0.046 -0.99864,0 -1.9899,-0.0765 -2.99146,-0.0765 -0.99966,0 -2.01325,0.0476 -3.01292,0.0476 -1.00118,0 -1.99575,0.036 -2.99402,0.036 -1.00273,0 -1.89235,-0.13245 -2.88919,-0.13245 -1.00442,0 -2.12191,0.10004 -3.11734,0.10004 -1.00606,0 -1.94156,-0.0952 -2.93533,-0.0952 -1.00745,0 -2.05661,0.0389 -3.0482,0.0389 -1.00978,0 -2.00173,0.1212 -2.99166,0.1212 -1.01208,0 -1.86009,-0.12896 -2.8478,-0.12896 -1.01432,0 -2.09964,0.16239 -3.08434,0.16239 -1.01758,0 -2.10833,-0.12437 -3.08996,-0.12437 -1.02142,0 -1.90878,-0.074 -2.88643,-0.074 -1.02643,0 -2.04249,-0.001 -3.01508,-0.001 -1.03341,0 -1.95261,0.15485 -2.91858,0.15485 -1.04259,0 -2.1931,0.0206 -3.14882,0.0206 -1.05781,0 -1.90422,-0.11915 -2.84449,-0.11915 -1.08501,0 -2.27732,0.0538 -3.18904,0.0538 -1.15159,0 -2.12653,-0.0832 -2.96922,-0.0832 -1.9275,0 -3.03016,0.0577 -3.03016,0.0577 0,0 0.11394,-1.12226 0.11394,-2.8852 0,-0.89504 -0.0386,-2.12183 -0.0386,-3.19535 0,-0.98811 -0.0497,-1.84711 -0.0497,-2.83527 0,-1.07358 0.0426,-2.07739 0.0426,-2.9726 0,-1.76379 -0.0362,-3.02186 -0.0362,-3.02186"
       id="rect3011-8-7-9-6"
       inkscape:connector-curvature="0"
       sodipodi:nodetypes="ccccc" />
    <text
       xml:space="preserve"
       style="font-size:12px;font-style:normal;font-variant:normal;font-weight:normal;font-stretch:normal;text-align:center;line-height:100%;letter-spacing:0px;word-spacing:0px;text-anchor:middle;fill:#000000;fill-opacity:1;stroke:none;font-family:Architects Daughter;-inkscape-font-specification:Architects Daughter"
       x="398"
       y="334.36218"
       id="text3068-6"
       sodipodi:linespacing="100%"><tspan
         sodipodi:role="line"
         id="tspan3070-1"
         x="398"
         y="334.36218"
         style="font-size:10px">remaining header</tspan></text>
    <path
       style="fill:none;stroke:#000000;stroke-width:1;stroke-linecap:butt;stroke-linejoin:miter;stroke-miterlimit:4;stroke-opacity:1;stroke-dashoffset:0"
       d="m 259.9113,337.31601 c 0,0 1.22593,-0.0537 2.9514,-0.0537 0.83391,0 1.79719,0.19979 2.84749,0.19979 0.90734,0 1.88596,-3.4e-4 2.87021,-3.4e-4 0.9468,0 1.97971,-0.16241 2.9265,-0.16241 0.98457,0 1.96978,0.0858 2.87737,0.0858 1.05044,0 2.01146,0.0285 2.84537,0.0285 1.72465,0 2.68709,-0.10684 2.68709,-0.10684 0,0 0.0858,1.39181 0.0858,3.15476 0,0.89503 0.0882,1.78383 0.0882,2.85735 0,0.98811 -0.0271,1.97735 -0.0271,2.96551 0,1.07358 -0.0661,2.2815 -0.0661,3.1767 0,1.7638 0.0766,2.96803 0.0766,2.96803 0,0 -1.30629,-0.0642 -3.03176,-0.0642 -0.83391,0 -1.66551,-0.094 -2.71581,-0.094 -0.90735,0 -1.97669,0.1689 -2.96095,0.1689 -0.9468,0 -1.76702,-0.13627 -2.71382,-0.13627 -0.98456,0 -2.05319,-0.039 -2.96078,-0.039 -1.05044,0 -1.9188,0.0408 -2.7527,0.0408 -1.72466,0 -3.03049,0.0177 -3.03049,0.0177 0,0 0.18659,-1.22999 0.18659,-2.99293 0,-0.89504 -0.18276,-1.8461 -0.18276,-2.91961 0,-0.98812 -0.002,-2.1032 -0.002,-3.09136 0,-1.07359 0.0747,-2.15963 0.0747,-3.05483 0,-1.7638 -0.0478,-2.82467 -0.0478,-2.82467"
       id="rect3011-8-9"
       inkscape:connector-curvature="0"
       sodipodi:nodetypes="ccccc" />
    <path
       style="fill:none;stroke:#000000;stroke-width:1;stroke-linecap:butt;stroke-linejoin:miter;stroke-miterlimit:4;stroke-opacity:1;stroke-dashoffset:0"
       d="m 240.01251,337.26297 c 0,0 1.15058,0.19428 2.87605,0.19428 0.83391,0 1.81241,-0.002 2.86272,-0.002 0.90734,0 1.86848,0.002 2.85274,0.002 0.9468,0 1.94528,-0.0202 2.89208,-0.0202 0.98456,0 1.85974,-0.17143 2.76733,-0.17143 1.05044,0 2.08262,0.004 2.91653,0.004 1.72466,0 2.82241,0.19324 2.82241,0.19324 0,0 0.0908,1.10026 0.0908,2.8632 0,0.89504 -0.003,2.00551 -0.003,3.07903 0,0.98811 0.007,1.94641 0.007,2.93457 0,1.07359 -0.041,2.04443 -0.041,2.93964 0,1.76379 -0.0234,3.17798 -0.0234,3.17798 0,0 -1.06513,-0.0967 -2.7906,-0.0967 -0.8339,0 -1.81121,0.033 -2.86151,0.033 -0.90734,0 -2.06788,-0.0277 -3.05214,-0.0277 -0.9468,0 -1.80692,0.0969 -2.75372,0.0969 -0.98456,0 -2.02255,-0.0267 -2.93013,-0.0267 -1.05045,0 -1.85946,-0.0434 -2.69337,-0.0434 -1.72466,0 -2.85817,-0.0655 -2.85817,-0.0655 0,0 -0.19338,-1.19941 -0.19338,-2.96236 0,-0.89503 0.12393,-2.02416 0.12393,-3.09768 0,-0.98811 -0.10176,-1.85258 -0.10176,-2.84074 0,-1.07358 0.1534,-2.10176 0.1534,-2.99697 0,-1.76379 -0.16222,-3.11643 -0.16222,-3.11643"
       id="rect3011-8-7-7"
       inkscape:connector-curvature="0"
       sodipodi:nodetypes="ccccc" />
    <path
       style="fill:none;stroke:#000000;stroke-width:1;stroke-linecap:butt;stroke-linejoin:miter;stroke-miterlimit:4;stroke-opacity:1;stroke-dashoffset:0"
       d="m 279.92105,337.3008 c 0,0 1.16103,-0.033 3.09418,-0.033 0.83391,0 1.84531,0.18311 2.99504,0.18311 0.90297,0 1.93647,-0.0334 3.01967,-0.0334 0.93147,0 1.83897,0.0445 2.89492,0.0445 0.94645,0 2.01103,-0.0237 3.05127,-0.0237 0.95657,0 1.97388,-0.12524 3.00499,-0.12524 0.96336,0 1.77232,0.0644 2.79689,0.0644 0.96801,0 2.02243,0.0768 3.04186,0.0768 0.97199,0 1.9808,-0.18903 2.99674,-0.18903 0.9751,0 1.99964,0.19677 3.01278,0.19677 0.97764,0 2.02392,-0.0174 3.03477,-0.0174 0.97928,0 2.00635,-0.0375 3.0148,-0.0375 0.98085,0 1.85379,0.0498 2.86041,0.0498 0.98261,0 2.01963,-0.19419 3.02509,-0.19419 0.98386,0 2.04002,0.0305 3.04415,0.0305 0.98528,0 1.90526,-0.031 2.90856,-0.031 0.98598,0 2.00273,0.19792 3.0047,0.19792 0.9869,0 2.03569,-0.16455 3.03674,-0.16455 0.9878,0 1.96296,0.14985 2.96323,0.14985 0.98835,0 2.02283,-0.1121 3.0221,-0.1121 0.98902,0 1.98366,0.002 2.98215,0.002 0.99017,0 1.97199,0.0816 2.97029,0.0816 0.99067,0 1.94913,0.0331 2.94665,0.0331 0.99128,0 1.98398,8.9e-4 2.98088,8.9e-4 0.99191,0 2.00407,-0.16581 3.00043,-0.16581 0.99252,0 1.91067,-0.0222 2.90649,-0.0222 0.99265,0 2.09842,0.11154 3.09326,0.11154 0.99359,0 1.89118,-0.1123 2.88587,-0.1123 0.99384,0 1.88867,0.12482 2.88251,0.12482 0.99458,0 2.10788,0.0727 3.10136,0.0727 0.99496,0 1.86786,-0.0843 2.86064,-0.0843 0.99542,0 2.12068,0.0814 3.11281,0.0814 0.99634,0 2.03692,-0.15695 3.02881,-0.15695 0.99679,0 1.87857,-0.0317 2.86974,-0.0317 0.99764,0 2.08596,0.0137 3.07675,0.0137 0.99848,0 1.96494,0.17526 2.95529,0.17526 0.9989,0 2.06069,-0.0787 3.05012,-0.0787 0.99948,0 1.94908,-0.10049 2.93765,-0.10049 1.00012,0 2.04019,0.0909 3.02785,0.0909 1.00108,0 1.80151,-0.0404 2.78844,-0.0404 1.00196,0 2.11999,0.12927 3.10597,0.12927 1.00311,0 2.01733,-0.18252 3.00243,-0.18252 1.00454,0 2.04087,0.0453 3.02511,0.0453 1.0056,0 1.81095,0.0598 2.79369,0.0598 1.00679,0 2.19722,0.003 3.17824,0.003 1.00864,0 1.82586,-0.0818 2.80531,-0.0818 1.01078,0 2.09869,-0.0386 3.07626,-0.0386 1.01308,0 2.0871,0.13601 3.06215,0.13601 1.01561,0 1.82293,-0.003 2.79462,-0.003 1.01953,0 2.0654,0.0565 3.03352,0.0565 1.02477,0 2.14337,-0.14942 3.10691,-0.14942 1.03106,0 1.90082,0.14862 2.85734,0.14862 1.04029,0 2.01028,-0.16162 2.95677,-0.16162 1.05536,0 2.11184,0.17172 3.04287,0.17172 1.08356,0 2.0972,-0.19927 3.00044,-0.19927 1.14958,0 2.06684,0.0304 2.90074,0.0304 1.93406,0 2.96742,0.0223 2.96742,0.0223 0,0 0.0872,1.38344 0.0872,3.14639 0,0.89503 0.10098,1.82071 0.10098,2.89423 0,0.98811 -0.13108,1.92253 -0.13108,2.91069 0,1.07358 -0.0267,2.1179 -0.0267,3.0131 0,1.7638 0.11344,2.99941 0.11344,2.99941 0,0 -1.20386,0.0716 -3.13702,0.0716 -0.8339,0 -1.68662,-0.077 -2.83635,-0.077 -0.90296,0 -1.93311,-0.0106 -3.0163,-0.0106 -0.93148,0 -2.01822,0.0372 -3.07416,0.0372 -0.94646,0 -1.90878,0.15081 -2.94901,0.15081 -0.95658,0 -1.992,-0.0385 -3.02311,-0.0385 -0.96336,0 -1.95455,0.006 -2.97913,0.006 -0.96801,0 -1.96526,-0.004 -2.98469,-0.004 -0.97198,0 -1.91339,0.0427 -2.92933,0.0427 -0.97511,0 -1.99498,-0.0128 -3.00812,-0.0128 -0.97763,0 -1.81798,-0.0578 -2.82884,-0.0578 -0.97927,0 -2.13491,-0.10072 -3.14336,-0.10072 -0.98085,0 -1.81194,0.0916 -2.81857,0.0916 -0.98261,0 -1.98035,0.0144 -2.98582,0.0144 -0.98385,0 -2.14896,-0.0954 -3.1531,-0.0954 -0.98528,0 -1.91537,-0.0335 -2.91867,-0.0335 -0.98598,0 -1.89023,0.0388 -2.8922,0.0388 -0.98691,0 -2.15348,0.098 -3.15454,0.098 -0.9878,0 -1.87339,0.0613 -2.87366,0.0613 -0.98836,0 -1.90151,-0.1231 -2.90079,-0.1231 -0.98901,0 -1.98178,0.006 -2.98027,0.006 -0.99017,0 -2.10761,-0.0784 -3.10591,-0.0784 -0.99067,0 -1.95324,0.19665 -2.95077,0.19665 -0.99127,0 -1.97057,-0.002 -2.96747,-0.002 -0.99192,0 -1.91803,-0.13994 -2.91438,-0.13994 -0.99252,0 -2.16821,0.0845 -3.16403,0.0845 -0.99265,0 -1.79684,-0.0553 -2.79167,-0.0553 -0.9936,0 -2.11426,-0.0831 -3.10894,-0.0831 -0.99384,0 -1.99429,0.002 -2.98813,0.002 -0.99458,0 -1.89598,0.0138 -2.88947,0.0138 -0.99496,0 -2.0371,-0.0189 -3.02988,-0.0189 -0.99543,0 -2.08834,0.0508 -3.08047,0.0508 -0.99633,0 -1.827,0.11319 -2.81889,0.11319 -0.99679,0 -2.00278,0.0117 -2.99394,0.0117 -0.99764,0 -1.97253,-0.0224 -2.96332,-0.0224 -0.99848,0 -2.12953,0.0314 -3.11989,0.0314 -0.9989,0 -1.87762,-0.008 -2.86704,-0.008 -0.99949,0 -2.08312,0.0195 -3.07168,0.0195 -1.00013,0 -2.06276,-0.13056 -3.05042,-0.13056 -1.00108,0 -1.80246,0.0488 -2.78939,0.0488 -1.00197,0 -2.19226,0.009 -3.17824,0.009 -1.00311,0 -1.9665,0.0512 -2.95159,0.0512 -1.00454,0 -1.98579,0.01 -2.97003,0.01 -1.0056,0 -1.85098,-0.0598 -2.83372,-0.0598 -1.00679,0 -2.0572,-0.11669 -3.03822,-0.11669 -1.00864,0 -2.13389,0.13487 -3.11334,0.13487 -1.01078,0 -2.00681,-0.003 -2.98439,-0.003 -1.01308,0 -1.86552,0.0454 -2.84058,0.0454 -1.01561,0 -1.97152,-0.0411 -2.94321,-0.0411 -1.01953,0 -2.20341,-0.0465 -3.17153,-0.0465 -1.02477,0 -2.01,0.0448 -2.97353,0.0448 -1.03106,0 -2.01334,0.0199 -2.96987,0.0199 -1.04029,0 -1.8754,-0.12007 -2.8219,-0.12007 -1.05536,0 -2.23223,0.0457 -3.16327,0.0457 -1.08355,0 -1.88108,0.003 -2.78433,0.003 -1.14957,0 -2.3151,0.0815 -3.149,0.0815 -1.93406,0 -2.95971,0.0162 -2.95971,0.0162 0,0 0.13988,-1.29931 0.13988,-3.06225 0,-0.89504 -0.12089,-1.856 -0.12089,-2.92952 0,-0.98812 0.10017,-2.04384 0.10017,-3.032 0,-1.07358 8.5e-4,-2.10543 8.5e-4,-3.00064 0,-1.76379 -0.16705,-3.10772 -0.16705,-3.10772"
       id="rect3011-8-7-9-6-5"
       inkscape:connector-curvature="0"
       sodipodi:nodetypes="ccccc" />
    <path
       style="fill:none;stroke:#000000;stroke-width:1;stroke-linecap:butt;stroke-linejoin:miter;stroke-miterlimit:4;stroke-opacity:1;stroke-dashoffset:0"
       d="m 259.90475,352.39262 c 0,0 1.24252,0.0684 2.96799,0.0684 0.83391,0 1.88704,-0.0703 2.93735,-0.0703 0.90734,0 1.84467,0.045 2.82893,0.045 0.9468,0 1.74486,-0.0912 2.69165,-0.0912 0.98457,0 2.13565,-0.0317 3.04324,-0.0317 1.05044,0 1.83912,0.0249 2.67303,0.0249 1.72466,0 3.00898,-0.0584 3.00898,-0.0584 0,0 -0.14206,1.37018 -0.14206,3.13312 0,0.89503 0.17599,1.83107 0.17599,2.90459 0,0.98811 -0.18114,2.0972 -0.18114,3.08536 0,1.07358 0.1814,2.02026 0.1814,2.91546 0,1.7638 -0.14962,2.96401 -0.14962,2.96401 0,0 -1.17256,0.0802 -2.89803,0.0802 -0.83391,0 -1.61929,0.0493 -2.66959,0.0493 -0.90734,0 -1.86859,-0.008 -2.85284,-0.008 -0.9468,0 -1.98046,-0.13841 -2.92726,-0.13841 -0.98457,0 -1.91157,0.17715 -2.81916,0.17715 -1.05044,0 -2.121,-0.17232 -2.9549,-0.17232 -1.72466,0 -2.84573,0.18903 -2.84573,0.18903 0,0 0.0882,-1.25365 0.0882,-3.01659 0,-0.89504 0.0147,-1.93973 0.0147,-3.01325 0,-0.98811 -0.15412,-2.01536 -0.15412,-3.00352 0,-1.07359 0.0873,-2.06711 0.0873,-2.96231 0,-1.7638 -0.0475,-3.00831 -0.0475,-3.00831"
       id="rect3011-8-9-5"
       inkscape:connector-curvature="0"
       sodipodi:nodetypes="ccccc" />
    <path
       style="fill:none;stroke:#000000;stroke-width:1;stroke-linecap:butt;stroke-linejoin:miter;stroke-miterlimit:4;stroke-opacity:1;stroke-dashoffset:0"
       d="m 240.0588,352.2813 c 0,0 1.16286,0.12532 2.88832,0.12532 0.83391,0 1.78524,0.0285 2.83554,0.0285 0.90735,0 1.75355,-0.15908 2.73781,-0.15908 0.9468,0 1.90735,0.16999 2.85414,0.16999 0.98457,0 1.99602,-0.18347 2.90361,-0.18347 1.05044,0 2.09954,0.0261 2.93345,0.0261 1.72466,0 2.88271,0.1066 2.88271,0.1066 0,0 -0.14054,1.29213 -0.14054,3.05507 0,0.89503 -0.0465,1.87457 -0.0465,2.94809 0,0.98811 0.14783,2.0584 0.14783,3.04656 0,1.07358 -0.0839,2.11678 -0.0839,3.01198 0,1.7638 0.003,3.00199 0.003,3.00199 0,0 -1.0504,-0.17933 -2.77587,-0.17933 -0.83391,0 -1.95528,0.0445 -3.00558,0.0445 -0.90735,0 -1.82886,0.12549 -2.81311,0.12549 -0.9468,0 -1.76448,-0.10731 -2.71127,-0.10731 -0.98457,0 -2.12253,0.0869 -3.03012,0.0869 -1.05044,0 -1.95136,0.033 -2.78527,0.033 -1.72466,0 -2.80621,-0.0119 -2.80621,-0.0119 0,0 0.003,-1.23798 0.003,-3.00093 0,-0.89503 -0.14754,-1.99033 -0.14754,-3.06384 0,-0.98812 0.018,-2.09516 0.018,-3.08332 0,-1.07359 0.0899,-2.14326 0.0899,-3.03846 0,-1.7638 0.0588,-2.97377 0.0588,-2.97377"
       id="rect3011-8-7-7-0"
       inkscape:connector-curvature="0"
       sodipodi:nodetypes="ccccc" />
    <path
       style="fill:none;stroke:#000000;stroke-width:1;stroke-linecap:butt;stroke-linejoin:miter;stroke-miterlimit:4;stroke-opacity:1;stroke-dashoffset:0"
       d="m 279.94921,352.44832 c 0,0 1.17824,-0.14813 3.11139,-0.14813 0.83391,0 1.7025,0.14779 2.85223,0.14779 0.90296,0 1.87911,-0.0159 2.96231,-0.0159 0.93148,0 1.97828,-0.1678 3.03423,-0.1678 0.94645,0 2.05256,0.0561 3.09279,0.0561 0.95658,0 1.77688,0.0963 2.808,0.0963 0.96335,0 2.03484,-0.15425 3.05941,-0.15425 0.96802,0 2.04618,0.0352 3.06561,0.0352 0.97198,0 1.80269,0.0161 2.81863,0.0161 0.97511,0 2.15376,0.0749 3.1669,0.0749 0.97763,0 1.77611,-0.0219 2.78696,-0.0219 0.97928,0 2.17127,0.0165 3.17972,0.0165 0.98086,0 1.94353,0.0538 2.95016,0.0538 0.98261,0 1.81415,-0.0494 2.81961,-0.0494 0.98385,0 1.97913,-0.0543 2.98327,-0.0543 0.98528,0 2.04295,0.12321 3.04625,0.12321 0.98598,0 2.10544,-0.0561 3.1074,-0.0561 0.98691,0 1.96962,-0.0974 2.97068,-0.0974 0.9878,0 1.80717,0.0924 2.80743,0.0924 0.98836,0 1.98228,-0.0663 2.98155,-0.0663 0.98902,0 2.07749,-0.0672 3.07598,-0.0672 0.99016,0 1.95384,0.005 2.95213,0.005 0.99068,0 1.924,0.13439 2.92152,0.13439 0.99128,0 2.01633,-0.1183 3.01323,-0.1183 0.99191,0 1.96548,0.022 2.96184,0.022 0.99251,0 2.16062,0.0973 3.15644,0.0973 0.99265,0 1.99311,-0.0603 2.98795,-0.0603 0.99359,0 1.86334,0.11639 2.85803,0.11639 0.99384,0 1.93022,-0.14998 2.92406,-0.14998 0.99458,0 2.04129,-0.0411 3.03478,-0.0411 0.99496,0 2.11654,0.0648 3.10931,0.0648 0.99543,0 1.82756,-0.0448 2.81969,-0.0448 0.99634,0 2.10325,0.16347 3.09514,0.16347 0.99679,0 1.85831,-0.13857 2.84948,-0.13857 0.99764,0 1.97899,0.0549 2.96979,0.0549 0.99848,0 2.17155,0.0569 3.1619,0.0569 0.99891,0 1.98226,-0.13586 2.97169,-0.13586 0.99948,0 1.84259,0.12838 2.83116,0.12838 1.00012,0 2.13314,0.0291 3.1208,0.0291 1.00108,0 1.84614,-0.0504 2.83307,-0.0504 1.00197,0 2.16649,-0.0983 3.15246,-0.0983 1.00311,0 1.90297,-0.0331 2.88806,-0.0331 1.00454,0 2.09574,0.0352 3.07998,0.0352 1.0056,0 1.85372,0.13557 2.83646,0.13557 1.00679,0 2.04154,0.0233 3.02256,0.0233 1.00864,0 1.9451,-0.14609 2.92456,-0.14609 1.01078,0 2.18245,0.008 3.16002,0.008 1.01309,0 1.95015,-0.0519 2.9252,-0.0519 1.01561,0 1.9713,-0.005 2.94299,-0.005 1.01953,0 2.03316,0.19895 3.00127,0.19895 1.02478,0 2.08464,-0.0366 3.04818,-0.0366 1.03105,0 2.0388,-0.0207 2.99532,-0.0207 1.04029,0 1.96399,0.0562 2.91049,0.0562 1.05536,0 2.00977,-0.19578 2.94081,-0.19578 1.08355,0 2.12812,0.19408 3.03137,0.19408 1.14957,0 2.22109,-0.097 3.05499,-0.097 1.93406,0 2.98249,-0.0139 2.98249,-0.0139 0,0 -0.1446,1.16206 -0.1446,2.92501 0,0.89503 0.085,1.92277 0.085,2.99629 0,0.98812 -0.10935,2.03306 -0.10935,3.02122 0,1.07359 0.0333,2.26881 0.0333,3.16402 0,1.76379 -0.0341,2.97862 -0.0341,2.97862 0,0 -0.88023,-0.0908 -2.81339,-0.0908 -0.8339,0 -1.83663,0.0553 -2.98637,0.0553 -0.90296,0 -1.94256,-0.12153 -3.02576,-0.12153 -0.93148,0 -1.98576,0.18608 -3.04171,0.18608 -0.94645,0 -1.92101,-0.19893 -2.96125,-0.19893 -0.95657,0 -1.97235,-3.5e-4 -3.00347,-3.5e-4 -0.96336,0 -2.00306,0.18406 -3.02763,0.18406 -0.96801,0 -1.97054,-0.006 -2.98997,-0.006 -0.97198,0 -1.81488,-0.12206 -2.83082,-0.12206 -0.97511,0 -1.98328,-0.0209 -2.99642,-0.0209 -0.97764,0 -2.11292,0.14117 -3.12377,0.14117 -0.97928,0 -2.00493,-0.0461 -3.01339,-0.0461 -0.98085,0 -1.97539,-0.0607 -2.98201,-0.0607 -0.98262,0 -1.79049,0.071 -2.79595,0.071 -0.98385,0 -1.97728,-0.002 -2.98142,-0.002 -0.98527,0 -2.08034,-0.13866 -3.08365,-0.13866 -0.98598,0 -2.06941,0.12215 -3.07138,0.12215 -0.98691,0 -1.97979,0.006 -2.98084,0.006 -0.9878,0 -1.95229,0.047 -2.95256,0.047 -0.98836,0 -1.95005,0.0191 -2.94932,0.0191 -0.98901,0 -1.86088,-0.14071 -2.85937,-0.14071 -0.99016,0 -1.98224,0.0881 -2.98053,0.0881 -0.99068,0 -1.98,-0.0695 -2.97752,-0.0695 -0.99128,0 -2.01386,-0.0456 -3.01076,-0.0456 -0.99192,0 -1.95497,0.0607 -2.95132,0.0607 -0.99252,0 -1.98625,0.0174 -2.98206,0.0174 -0.99265,0 -1.99011,0.0217 -2.98494,0.0217 -0.9936,0 -2.05924,-0.12313 -3.05393,-0.12313 -0.99384,0 -1.95462,0.0157 -2.94846,0.0157 -0.99458,0 -2.11262,0.1569 -3.1061,0.1569 -0.99496,0 -1.87687,0.0124 -2.86965,0.0124 -0.99543,0 -2.03607,0.0118 -3.0282,0.0118 -0.99634,0 -2.06885,-0.037 -3.06075,-0.037 -0.99678,0 -1.97876,-0.13867 -2.96993,-0.13867 -0.99764,0 -1.95468,-0.0204 -2.94547,-0.0204 -0.99849,0 -1.91032,0.0125 -2.90068,0.0125 -0.9989,0 -2.14528,0.059 -3.1347,0.059 -0.99949,0 -1.79909,0.0454 -2.78765,0.0454 -1.00013,0 -2.19184,-0.0131 -3.1795,-0.0131 -1.00108,0 -1.86617,0.0878 -2.8531,0.0878 -1.00196,0 -2.00987,-0.19425 -2.99585,-0.19425 -1.00311,0 -1.959,0.18253 -2.94409,0.18253 -1.00454,0 -1.98441,-0.15574 -2.96865,-0.15574 -1.0056,0 -2.06036,-0.0276 -3.04309,-0.0276 -1.0068,0 -2.11045,0.0999 -3.09147,0.0999 -1.00864,0 -1.96546,0.0779 -2.94491,0.0779 -1.01078,0 -2.00761,-0.15473 -2.98518,-0.15473 -1.01309,0 -1.97196,-0.0193 -2.94702,-0.0193 -1.01561,0 -2.01069,0.19141 -2.98237,0.19141 -1.01954,0 -2.0827,-0.0753 -3.05081,-0.0753 -1.02478,0 -1.99828,0.0443 -2.96182,0.0443 -1.03106,0 -2.00954,0.0155 -2.96607,0.0155 -1.04028,0 -2.07406,-0.0646 -3.02055,-0.0646 -1.05536,0 -2.00293,-0.10141 -2.93396,-0.10141 -1.08356,0 -1.99823,-0.009 -2.90147,-0.009 -1.14958,0 -2.15597,-0.002 -2.98987,-0.002 -1.93406,0 -3.03996,0.19154 -3.03996,0.19154 0,0 0.0879,-1.24662 0.0879,-3.00957 0,-0.89503 0.0325,-1.96005 0.0325,-3.03357 0,-0.98811 0.003,-2.1072 0.003,-3.09536 0,-1.07359 -0.0964,-2.1592 -0.0964,-3.0544 0,-1.7638 0.10484,-2.88016 0.10484,-2.88016"
       id="rect3011-8-7-9-6-5-4"
       inkscape:connector-curvature="0"
       sodipodi:nodetypes="ccccc" />
    <path
       style="fill:none;stroke:#000000;stroke-width:1;stroke-linecap:butt;stroke-linejoin:miter;stroke-miterlimit:4;stroke-opacity:1;stroke-dashoffset:0"
       d="m 260.05721,382.28016 c 0,0 0.97602,0.0669 2.70148,0.0669 0.83391,0 1.86347,-0.0757 2.91377,-0.0757 0.90735,0 1.93717,0.18826 2.92143,0.18826 0.9468,0 1.85474,-0.19157 2.80153,-0.19157 0.98457,0 1.98729,-0.006 2.89488,-0.006 1.05044,0 1.98657,0.006 2.82048,0.006 1.72465,0 2.7932,0.0664 2.7932,0.0664 0,0 0.19439,1.24643 0.19439,3.00938 0,0.89503 -0.0835,1.84485 -0.0835,2.91837 0,0.98811 0.0769,2.07168 0.0769,3.05984 0,1.07358 -0.13781,2.05534 -0.13781,2.95054 0,1.7638 -0.0235,3.1617 -0.0235,3.1617 0,0 -1.08423,-0.16953 -2.8097,-0.16953 -0.83391,0 -1.8733,0.1441 -2.9236,0.1441 -0.90735,0 -1.77223,0.0528 -2.75649,0.0528 -0.9468,0 -1.83518,-0.14708 -2.78197,-0.14708 -0.98457,0 -2.01351,-0.0491 -2.92109,-0.0491 -1.05045,0 -1.98766,0.17694 -2.82157,0.17694 -1.72466,0 -2.89755,0.0183 -2.89755,0.0183 0,0 0.0194,-1.24223 0.0194,-3.00517 0,-0.89504 0.0397,-2.08126 0.0397,-3.15478 0,-0.98812 -0.1762,-1.93239 -0.1762,-2.92055 0,-1.07358 0.11022,-2.02223 0.11022,-2.91744 0,-1.76379 10e-4,-3.19949 10e-4,-3.19949"
       id="rect3011-8-9-5-6"
       inkscape:connector-curvature="0"
       sodipodi:nodetypes="ccccc" />
    <path
       style="fill:none;stroke:#000000;stroke-width:1;stroke-linecap:butt;stroke-linejoin:miter;stroke-miterlimit:4;stroke-opacity:1;stroke-dashoffset:0"
       d="m 239.90003,382.36477 c 0,0 1.19853,-0.0968 2.92399,-0.0968 0.83391,0 1.78928,0.18044 2.83958,0.18044 0.90734,0 2.01923,-0.11481 3.00349,-0.11481 0.9468,0 1.86223,-0.0597 2.80903,-0.0597 0.98457,0 2.00007,0.11326 2.90766,0.11326 1.05044,0 2.02003,-0.0596 2.85394,-0.0596 1.72466,0 2.83448,-0.0346 2.83448,-0.0346 0,0 -0.033,1.39767 -0.033,3.16062 0,0.89503 -0.13672,1.81172 -0.13672,2.88524 0,0.98812 0.0461,1.94874 0.0461,2.9369 0,1.07359 0.0197,2.09536 0.0197,2.99057 0,1.76379 -0.005,3.00278 -0.005,3.00278 0,0 -1.08821,-0.007 -2.81368,-0.007 -0.8339,0 -1.72275,0.0582 -2.77305,0.0582 -0.90734,0 -1.88077,-0.0143 -2.86503,-0.0143 -0.9468,0 -1.9172,-0.008 -2.864,-0.008 -0.98457,0 -2.12408,0.0883 -3.03166,0.0883 -1.05044,0 -2.02521,-0.0115 -2.85912,-0.0115 -1.72466,0 -2.79841,-0.10368 -2.79841,-0.10368 0,0 -0.0303,-1.07588 -0.0303,-2.83883 0,-0.89503 0.05,-2.09298 0.05,-3.1665 0,-0.98811 0.1209,-1.90182 0.1209,-2.88998 0,-1.07359 5.4e-4,-2.12553 5.4e-4,-3.02073 0,-1.7638 -0.13246,-2.8985 -0.13246,-2.8985"
       id="rect3011-8-7-7-0-0"
       inkscape:connector-curvature="0"
       sodipodi:nodetypes="ccccc" />
    <path
       style="fill:none;stroke:#000000;stroke-width:1;stroke-linecap:butt;stroke-linejoin:miter;stroke-miterlimit:4;stroke-opacity:1;stroke-dashoffset:0"
       d="m 280.06611,382.43721 c 0,0 1.07212,-0.12013 3.00527,-0.12013 0.83391,0 1.75837,-0.0537 2.9081,-0.0537 0.90297,0 1.85752,0.002 2.94072,0.002 0.93148,0 1.92101,0.19095 2.97695,0.19095 0.94646,0 1.88305,-0.13622 2.92329,-0.13622 0.95657,0 1.94511,0.0188 2.97622,0.0188 0.96336,0 1.95993,0.0521 2.98451,0.0521 0.96801,0 2.15233,0.005 3.17176,0.005 0.97198,0 1.90568,0.0607 2.92162,0.0607 0.9751,0 1.90476,-0.18911 2.9179,-0.18911 0.97764,0 1.90445,0.10091 2.9153,0.10091 0.97928,0 2.10178,-0.10202 3.11023,-0.10202 0.98085,0 1.92314,0.19308 2.92976,0.19308 0.98261,0 1.90124,-0.0863 2.9067,-0.0863 0.98385,0 2.1045,-0.10722 3.10864,-0.10722 0.98528,0 1.90016,0.0115 2.90347,0.0115 0.98598,0 2.08914,0.16775 3.0911,0.16775 0.98691,0 1.98401,-0.16386 2.98507,-0.16386 0.98779,0 1.82495,0.0637 2.82522,0.0637 0.98836,0 1.98336,0.0389 2.98263,0.0389 0.98902,0 2.16226,0.0362 3.16076,0.0362 0.99016,0 1.83525,-0.13129 2.83355,-0.13129 0.99067,0 2.14549,0.1113 3.14301,0.1113 0.99128,0 1.88793,0.062 2.88483,0.062 0.99191,0 2.08868,-0.0763 3.08503,-0.0763 0.99252,0 1.88815,0.0764 2.88397,0.0764 0.99265,0 1.95701,-0.19497 2.95184,-0.19497 0.9936,0 2.0742,0.17856 3.06888,0.17856 0.99384,0 2.02721,-0.0499 3.02105,-0.0499 0.99458,0 1.79476,-0.0311 2.78825,-0.0311 0.99496,0 2.12885,-0.0943 3.12162,-0.0943 0.99543,0 2.04571,0.0638 3.03784,0.0638 0.99634,0 1.85519,-0.0639 2.84708,-0.0639 0.99679,0 2.12794,0.069 3.11911,0.069 0.99764,0 1.95396,0.10349 2.94476,0.10349 0.99848,0 2.02016,-0.0298 3.01051,-0.0298 0.99891,0 1.85339,-0.13506 2.84281,-0.13506 0.99949,0 2.04577,0.18424 3.03433,0.18424 1.00013,0 1.91831,-0.0373 2.90597,-0.0373 1.00108,0 1.97749,-0.0911 2.96443,-0.0911 1.00196,0 2.07251,0.12649 3.05849,0.12649 1.00311,0 1.95314,-0.0213 2.93823,-0.0213 1.00454,0 2.1462,-0.13285 3.13044,-0.13285 1.00559,0 1.88154,0.14944 2.86428,0.14944 1.00679,0 1.97112,-0.16858 2.95214,-0.16858 1.00863,0 1.9701,0.0608 2.94955,0.0608 1.01078,0 2.20425,0.0207 3.18182,0.0207 1.01309,0 1.931,0.091 2.90605,0.091 1.01561,0 1.90419,-0.0411 2.87588,-0.0411 1.01953,0 2.0342,0.0217 3.00232,0.0217 1.02477,0 2.03026,0.007 2.9938,0.007 1.03106,0 1.99398,-0.0314 2.9505,-0.0314 1.04029,0 2.03231,-0.005 2.97881,-0.005 1.05536,0 2.09258,-0.1384 3.02361,-0.1384 1.08356,0 2.0492,0.0243 2.95244,0.0243 1.14958,0 2.30095,0.12877 3.13485,0.12877 1.93406,0 2.99065,-0.11803 2.99065,-0.11803 0,0 -0.13838,1.3746 -0.13838,3.13755 0,0.89503 0.0299,1.74484 0.0299,2.81836 0,0.98811 0.0211,2.0095 0.0211,2.99766 0,1.07358 0.0414,2.11193 0.0414,3.00714 0,1.76379 -0.002,3.18661 -0.002,3.18661 0,0 -1.02177,-0.016 -2.95493,-0.016 -0.8339,0 -1.80657,-0.12211 -2.9563,-0.12211 -0.90296,0 -2.06113,-0.0239 -3.14433,-0.0239 -0.93148,0 -1.94438,0.0246 -3.00033,0.0246 -0.94645,0 -1.76192,0.0885 -2.80215,0.0885 -0.95658,0 -2.03525,-0.14413 -3.06637,-0.14413 -0.96336,0 -1.88828,0.16489 -2.91285,0.16489 -0.96801,0 -2.09867,0.0148 -3.11809,0.0148 -0.97199,0 -1.8426,-0.003 -2.85854,-0.003 -0.97511,0 -1.94222,-0.0365 -2.95536,-0.0365 -0.97764,0 -2.06445,-0.14054 -3.0753,-0.14054 -0.97928,0 -2.02118,0.18764 -3.02963,0.18764 -0.98085,0 -1.89367,-0.18196 -2.90029,-0.18196 -0.98261,0 -1.92262,0.0462 -2.92808,0.0462 -0.98385,0 -2.13373,-0.0254 -3.13787,-0.0254 -0.98528,0 -1.98457,0.14238 -2.98788,0.14238 -0.98598,0 -1.92662,-0.16713 -2.92859,-0.16713 -0.98691,0 -1.98785,0.002 -2.98891,0.002 -0.9878,0 -1.93928,-0.002 -2.93955,-0.002 -0.98836,0 -2.02358,0.19563 -3.02285,0.19563 -0.98901,0 -1.90603,-0.18171 -2.90452,-0.18171 -0.99016,0 -2.01857,0.18261 -3.01686,0.18261 -0.99068,0 -2.05787,-0.0134 -3.05539,-0.0134 -0.99128,0 -1.84768,-0.0315 -2.84458,-0.0315 -0.99191,0 -2.05545,0.0456 -3.05181,0.0456 -0.99251,0 -2.10254,-0.0994 -3.09835,-0.0994 -0.99266,0 -1.84412,0.0911 -2.83896,0.0911 -0.99359,0 -2.12006,-0.1351 -3.11474,-0.1351 -0.99384,0 -1.86396,-0.0492 -2.8578,-0.0492 -0.99458,0 -2.0316,0.19352 -3.02509,0.19352 -0.99496,0 -1.88184,-0.11348 -2.87461,-0.11348 -0.99543,0 -1.99335,0.0445 -2.98548,0.0445 -0.99634,0 -2.11643,0.0645 -3.10832,0.0645 -0.99679,0 -1.90257,-0.17672 -2.89374,-0.17672 -0.99764,0 -2.091,0.17274 -3.0818,0.17274 -0.99848,0 -1.86273,-0.0468 -2.85309,-0.0468 -0.9989,0 -1.98617,-0.0192 -2.9756,-0.0192 -0.99948,0 -1.9918,-0.0409 -2.98036,-0.0409 -1.00013,0 -1.99871,0.0486 -2.98637,0.0486 -1.00108,0 -2.05297,0.06 -3.0399,0.06 -1.00197,0 -2.1328,-0.0845 -3.11878,-0.0845 -1.00311,0 -1.79889,-0.0222 -2.78398,-0.0222 -1.00454,0 -2.07372,-0.0831 -3.05796,-0.0831 -1.00559,0 -2.08007,0.0136 -3.06281,0.0136 -1.00679,0 -2.03008,0.13735 -3.0111,0.13735 -1.00864,0 -1.95762,0.0383 -2.93708,0.0383 -1.01078,0 -1.86979,-0.0683 -2.84736,-0.0683 -1.01308,0 -2.16683,-0.10243 -3.14188,-0.10243 -1.01561,0 -1.86562,0.13523 -2.8373,0.13523 -1.01953,0 -2.13248,0.0365 -3.1006,0.0365 -1.02477,0 -2.06964,-0.14468 -3.03317,-0.14468 -1.03106,0 -1.93275,0.15111 -2.88927,0.15111 -1.04029,0 -2.09509,-0.18484 -3.04159,-0.18484 -1.05535,0 -2.02738,0.18074 -2.95842,0.18074 -1.08356,0 -2.02253,-0.19151 -2.92578,-0.19151 -1.14957,0 -2.14105,0.18948 -2.97495,0.18948 -1.93406,0 -3.08791,-0.0213 -3.08791,-0.0213 0,0 -0.0271,-1.33598 -0.0271,-3.09893 0,-0.89503 0.0166,-1.83794 0.0166,-2.91146 0,-0.98811 0.0141,-1.99746 0.0141,-2.98562 0,-1.07358 0.11038,-2.09067 0.11038,-2.98587 0,-1.7638 -0.13819,-3.1264 -0.13819,-3.1264"
       id="rect3011-8-7-9-6-5-4-1"
       inkscape:connector-curvature="0"
       sodipodi:nodetypes="ccccc" />
    <text
       xml:space="preserve"
       style="font-size:12px;font-style:normal;font-variant:normal;font-weight:normal;font-stretch:normal;text-align:center;line-height:100%;letter-spacing:0px;word-spacing:0px;text-anchor:middle;fill:#000000;fill-opacity:1;stroke:none;font-family:Architects Daughter;-inkscape-font-specification:Architects Daughter"
       x="345"
       y="377.36218"
       id="text3003-5"
       sodipodi:linespacing="100%"><tspan
         sodipodi:role="line"
         id="tspan3005-2"
         x="345"
         y="377.36218">...</tspan></text>
    <text
       xml:space="preserve"
       style="font-size:12px;font-style:normal;font-variant:normal;font-weight:normal;font-stretch:normal;text-align:center;line-height:100%;letter-spacing:0px;word-spacing:0px;text-anchor:middle;fill:#000000;fill-opacity:1;stroke:none;font-family:Architects Daughter;-inkscape-font-specification:Architects Daughter"
       x="280"
       y="377.36218"
       id="text3003-5-6"
       sodipodi:linespacing="100%"><tspan
         sodipodi:role="line"
         id="tspan3005-2-7"
         x="280"
         y="377.36218">...</tspan></text>
    <text
       xml:space="preserve"
       style="font-size:12px;font-style:normal;font-variant:normal;font-weight:normal;font-stretch:normal;text-align:center;line-height:100%;letter-spacing:0px;word-spacing:0px;text-anchor:middle;fill:#000000;fill-opacity:1;stroke:none;font-family:Architects Daughter;-inkscape-font-specification:Architects Daughter"
       x="405"
       y="377.36218"
       id="text3003-5-6-6"
       sodipodi:linespacing="100%"><tspan
         sodipodi:role="line"
         id="tspan3005-2-7-0"
         x="405"
         y="377.36218">...</tspan></text>
    <text
       xml:space="preserve"
       style="font-size:12px;font-style:normal;font-variant:normal;font-weight:normal;font-stretch:normal;text-align:center;line-height:100%;letter-spacing:0px;word-spacing:0px;text-anchor:middle;fill:#000000;fill-opacity:1;stroke:none;font-family:Architects Daughter;-inkscape-font-specification:Architects Daughter"
       x="364.81445"
       y="349.36218"
       id="text3068-6-8"
       sodipodi:linespacing="100%"><tspan
         sodipodi:role="line"
         id="tspan3070-1-8"
         x="364.81445"
         y="349.36218"
         style="font-size:10px">payload flit 0</tspan></text>
    <text
       xml:space="preserve"
       style="font-size:12px;font-style:normal;font-variant:normal;font-weight:normal;font-stretch:normal;text-align:center;line-height:100%;letter-spacing:0px;word-spacing:0px;text-anchor:middle;fill:#000000;fill-opacity:1;stroke:none;font-family:Architects Daughter;-inkscape-font-specification:Architects Daughter"
       x="364.75098"
       y="364.36218"
       id="text3068-6-8-0"
       sodipodi:linespacing="100%"><tspan
         sodipodi:role="line"
         id="tspan3070-1-8-7"
         x="364.75098"
         y="364.36218"
         style="font-size:10px">payload flit 1</tspan></text>
    <text
       xml:space="preserve"
       style="font-size:12px;font-style:normal;font-variant:normal;font-weight:normal;font-stretch:normal;text-align:center;line-height:100%;letter-spacing:0px;word-spacing:0px;text-anchor:middle;fill:#000000;fill-opacity:1;stroke:none;font-family:Architects Daughter;-inkscape-font-specification:Architects Daughter"
       x="364.7998"
       y="394.36218"
       id="text3068-6-8-7"
       sodipodi:linespacing="100%"><tspan
         sodipodi:role="line"
         id="tspan3070-1-8-5"
         x="364.7998"
         y="394.36218"
         style="font-size:10px">payload flit n</tspan></text>
    <text
       xml:space="preserve"
       style="font-size:13px;font-style:normal;font-variant:normal;font-weight:normal;font-stretch:normal;text-align:center;line-height:100%;letter-spacing:0px;word-spacing:0px;text-anchor:middle;fill:#000000;fill-opacity:1;stroke:none;font-family:Architects Daughter;-inkscape-font-specification:Architects Daughter"
       x="270"
       y="350.36218"
       id="text2999-5-9"
       sodipodi:linespacing="100%"><tspan
         sodipodi:role="line"
         id="tspan3001-1-4"
         x="270"
         y="350.36218"
         style="font-size:13px">0</tspan></text>
    <text
       xml:space="preserve"
       style="font-size:13px;font-style:normal;font-variant:normal;font-weight:normal;font-stretch:normal;text-align:center;line-height:100%;letter-spacing:0px;word-spacing:0px;text-anchor:middle;fill:#000000;fill-opacity:1;stroke:none;font-family:Architects Daughter;-inkscape-font-specification:Architects Daughter"
       x="250"
       y="350.36218"
       id="text2999-5-5-5"
       sodipodi:linespacing="100%"><tspan
         sodipodi:role="line"
         id="tspan3001-1-8-5"
         x="250"
         y="350.36218"
         style="font-size:13px">0</tspan></text>
    <text
       xml:space="preserve"
       style="font-size:13px;font-style:normal;font-variant:normal;font-weight:normal;font-stretch:normal;text-align:center;line-height:100%;letter-spacing:0px;word-spacing:0px;text-anchor:middle;fill:#000000;fill-opacity:1;stroke:none;font-family:Architects Daughter;-inkscape-font-specification:Architects Daughter"
       x="270"
       y="365.36218"
       id="text2999-5-9-3"
       sodipodi:linespacing="100%"><tspan
         sodipodi:role="line"
         id="tspan3001-1-4-8"
         x="270"
         y="365.36218"
         style="font-size:13px">0</tspan></text>
    <text
       xml:space="preserve"
       style="font-size:13px;font-style:normal;font-variant:normal;font-weight:normal;font-stretch:normal;text-align:center;line-height:100%;letter-spacing:0px;word-spacing:0px;text-anchor:middle;fill:#000000;fill-opacity:1;stroke:none;font-family:Architects Daughter;-inkscape-font-specification:Architects Daughter"
       x="250"
       y="365.36218"
       id="text2999-5-5-5-6"
       sodipodi:linespacing="100%"><tspan
         sodipodi:role="line"
         id="tspan3001-1-8-5-2"
         x="250"
         y="365.36218"
         style="font-size:13px">0</tspan></text>
    <text
       xml:space="preserve"
       style="font-size:13px;font-style:normal;font-variant:normal;font-weight:normal;font-stretch:normal;text-align:center;line-height:100%;letter-spacing:0px;word-spacing:0px;text-anchor:middle;fill:#000000;fill-opacity:1;stroke:none;font-family:Architects Daughter;-inkscape-font-specification:Architects Daughter"
       x="270"
       y="395.36218"
       id="text2999-5-9-4"
       sodipodi:linespacing="100%"><tspan
         sodipodi:role="line"
         id="tspan3001-1-4-9"
         x="270"
         y="395.36218"
         style="font-size:13px">0</tspan></text>
    <text
       xml:space="preserve"
       style="font-size:13px;font-style:normal;font-variant:normal;font-weight:normal;font-stretch:normal;text-align:center;line-height:100%;letter-spacing:0px;word-spacing:0px;text-anchor:middle;fill:#000000;fill-opacity:1;stroke:none;font-family:Architects Daughter;-inkscape-font-specification:Architects Daughter"
       x="250"
       y="395.36218"
       id="text2999-5-5-5-7"
       sodipodi:linespacing="100%"><tspan
         sodipodi:role="line"
         id="tspan3001-1-8-5-1"
         x="250"
         y="395.36218"
         style="font-size:13px">1</tspan></text>
  </g>
</svg>
